<?xml version="1.0" encoding="utf-8"?>
<!-- Generator: Adobe Illustrator 23.1.0, SVG Export Plug-In . SVG Version: 6.00 Build 0)  -->
<svg version="1.1" id="Layer_1" xmlns="http://www.w3.org/2000/svg" xmlns:xlink="http://www.w3.org/1999/xlink" x="0px" y="0px"
	 viewBox="0 0 679.4 566.5" style="enable-background:new 0 0 679.4 566.5;" xml:space="preserve">
<style type="text/css">
	.st0{fill:#1E1E1E;}
	.st1{fill:#FFFFFF;}
</style>
<g>
	<g>
		<path class="st0" d="M87.6,566.5V417.6C37.8,408,0,364.1,0,311.6V107.9C0,48.4,48.4,0,107.9,0h463.6C631,0,679.4,48.4,679.4,107.9
			v203.7c0,59.5-48.4,107.9-107.9,107.9H298.9L87.6,566.5z M107.9,40C70.5,40,40,70.5,40,107.9v203.7c0,37.3,30.4,67.8,67.7,67.9
			l19.9,0.1V490l158.7-110.5h285.2c37.4,0,67.9-30.5,67.9-67.9V107.9c0-37.4-30.5-67.9-67.9-67.9H107.9z"/>
	</g>
</g>
<ellipse class="st0" cx="340" cy="173.6" rx="68.5" ry="94.2"/>
<ellipse transform="matrix(0.964 -0.2658 0.2658 0.964 -22.4217 102.885)" class="st1" cx="368.9" cy="134.3" rx="22.9" ry="41.3"/>
<ellipse class="st0" cx="486.3" cy="182.2" rx="61.8" ry="106.1"/>
<ellipse transform="matrix(0.964 -0.2658 0.2658 0.964 -17.4236 139.8207)" class="st1" cx="507.9" cy="134.3" rx="22.9" ry="41.3"/>
</svg>
